<svg width="0" height="0" class="hidden">
  <symbol viewBox="0 0 24 24" xmlns="http://www.w3.org/2000/svg" id="social-1">
    <path d="M8.156 18.61c0 .124-.094.203-.281.234-.156 0-.234-.063-.234-.188s.078-.187.234-.187c.094 0 .156.015.188.047.062.03.093.062.093.093zm-1.453-.188c-.031.031-.031.078 0 .14l.188.094a.199.199 0 0 0 .187 0c.063-.031.094-.078.094-.14.031-.094-.031-.157-.188-.188-.156-.062-.25-.031-.28.094zm2.063-.094c-.157.031-.235.094-.235.188a.508.508 0 0 0 .094.187h.188c.156-.062.218-.14.187-.234 0-.094-.078-.14-.234-.14zM11.859.375c-2.156 0-4.109.5-5.859 1.5S2.875 4.25 1.875 6s-1.5 3.688-1.5 5.813c0 2.593.734 4.921 2.203 6.984 1.469 2.031 3.39 3.437 5.766 4.219.25.062.437.03.562-.094a.577.577 0 0 0 .235-.469l-.047-2.86-.516.048a4.973 4.973 0 0 1-1.172.047c-.531-.063-.984-.204-1.36-.422a1.897 1.897 0 0 1-.89-1.078l-.187-.375a3.04 3.04 0 0 0-.469-.75c-.219-.282-.438-.485-.656-.61l-.235-.187c-.156-.125-.234-.235-.234-.328.031-.126.219-.188.563-.188l.328.047c.25.094.484.203.703.328.312.219.562.5.75.844.437.781 1.062 1.203 1.875 1.265.5.063 1.015-.03 1.547-.28.093-.688.343-1.22.75-1.595-1.125-.125-1.97-.28-2.532-.468-.875-.313-1.53-.797-1.968-1.454-.5-.78-.75-1.874-.75-3.28 0-.595.078-1.079.234-1.454.188-.406.469-.844.844-1.312-.125-.282-.188-.641-.188-1.079A4.345 4.345 0 0 1 5.86 5.25c.282-.094.704-.031 1.266.188.406.156.86.375 1.36.656l.609.422A10.06 10.06 0 0 1 12 6.094c1.031 0 2.031.14 3 .422l.61-.422c.5-.282.937-.5 1.312-.657.562-.218 1-.28 1.312-.187.25.688.36 1.375.328 2.063a3.76 3.76 0 0 1-.234 1.125c.438.468.735.859.89 1.171.22.438.329.954.329 1.547 0 1.406-.266 2.516-.797 3.328-.469.625-1.14 1.094-2.016 1.407-.562.187-1.422.343-2.578.468.531.438.797 1.157.797 2.157v3.937c0 .188.063.344.188.469.156.125.359.156.609.094 2.344-.782 4.234-2.188 5.672-4.22 1.469-2.062 2.203-4.39 2.203-6.983 0-2.126-.531-4.079-1.594-5.86C21 4.234 19.578 2.875 17.766 1.875c-1.813-1-3.782-1.5-5.907-1.5zM4.922 16.547c-.063.062-.047.14.047.234.093.094.172.11.234.047.063-.062.047-.14-.047-.234-.093-.094-.172-.11-.234-.047zm-.516-.375c-.031.062 0 .125.094.187.125.063.203.063.234 0 .032-.093 0-.156-.093-.187-.094-.063-.172-.063-.235 0zm1.547 1.64c-.031.032-.047.079-.047.141 0 .063.032.125.094.188.125.125.234.14.328.047.031-.032.031-.079 0-.141 0-.063-.031-.11-.094-.14-.03-.063-.078-.095-.14-.095-.063-.03-.11-.03-.14 0zm-.562-.656c-.063.032-.063.125 0 .282a.52.52 0 0 1 .14.093c.063.032.11.032.14 0 .095-.062.095-.156 0-.281-.03-.063-.077-.094-.14-.094-.031-.031-.078-.031-.14 0z"
      ></path>
  </symbol>
  <symbol viewBox="0 0 27 18" xmlns="http://www.w3.org/2000/svg" id="social-2">
    <path d="M10.875 8.11c1.5-.72 2.25-1.86 2.25-3.422 0-1.563-.516-2.672-1.547-3.329-.875-.562-2.125-.843-3.75-.843H0v16.64h8.063c1.656 0 3-.39 4.03-1.172 1.22-.843 1.829-2.062 1.829-3.656 0-1.062-.266-1.953-.797-2.672-.5-.75-1.25-1.265-2.25-1.547zM3.656 3.374h3.422c1.656 0 2.484.625 2.484 1.875 0 .688-.203 1.203-.609 1.547-.375.312-.906.469-1.594.469H3.656v-3.89zm3.89 10.969h-3.89V9.75h3.985c1.75 0 2.625.797 2.625 2.39 0 1.47-.907 2.204-2.72 2.204zm16.83-11.296h-6.75v-1.64h6.75v1.64zM27 11.297c0-1.844-.5-3.375-1.5-4.594-1.094-1.281-2.547-1.922-4.36-1.922-1.187 0-2.25.282-3.187.844a5.985 5.985 0 0 0-2.203 2.297c-.5.969-.75 2.047-.75 3.234 0 1.875.547 3.39 1.64 4.547 1.126 1.156 2.626 1.735 4.5 1.735 2.876 0 4.75-1.344 5.626-4.032h-2.907c-.156.5-.5.89-1.03 1.172a3.2 3.2 0 0 1-1.595.422c-.937 0-1.672-.266-2.203-.797-.5-.531-.75-1.297-.75-2.297h8.672l.047-.61zm-8.719-1.453c.063-.781.344-1.406.844-1.875.5-.469 1.14-.703 1.922-.703.812 0 1.437.234 1.875.703.437.437.687 1.062.75 1.875h-5.39z"
      ></path>
  </symbol>
  <symbol viewBox="0 0 21 22" xmlns="http://www.w3.org/2000/svg" id="social-3">
    <path d="M4.688 21.5H.327V7.484h4.36V21.5zM2.53 5.562c-.687 0-1.281-.25-1.781-.75S0 3.72 0 3.032C0 2.343.25 1.75.75 1.25S1.844.5 2.531.5c.688 0 1.281.25 1.781.75s.75 1.094.75 1.781c0 .688-.25 1.281-.75 1.781s-1.093.75-1.78.75zM21 21.5h-4.36v-6.844c0-1.125-.093-1.937-.28-2.437-.344-.844-1.016-1.266-2.016-1.266s-1.703.375-2.11 1.125c-.312.563-.468 1.39-.468 2.485V21.5H7.453V7.484h4.172v1.922h.047c.312-.625.812-1.14 1.5-1.547.75-.5 1.625-.75 2.625-.75 2.031 0 3.453.641 4.265 1.922.625 1.031.938 2.625.938 4.781V21.5z"
      ></path>
  </symbol>
  <symbol viewBox="0 0 24 24" xmlns="http://www.w3.org/2000/svg" id="social-4">
    <path d="M23.531 7.5L12.563.187c-.376-.25-.75-.25-1.126 0L.47 7.5c-.314.188-.47.469-.47.844v7.312c0 .375.156.656.469.844l10.969 7.313c.374.25.75.25 1.124 0l10.97-7.313c.312-.188.468-.469.468-.844V8.344c0-.375-.156-.656-.469-.844zm-10.5-4.547l8.063 5.39-3.61 2.391-4.453-2.953V2.953zm-2.062 0v4.828l-4.453 2.953-3.61-2.39 8.063-5.39zm-8.906 7.313L4.64 12l-2.579 1.734v-3.468zm8.906 10.78l-8.063-5.39 3.61-2.39 4.453 2.953v4.828zM12 14.439L8.344 12 12 9.562 15.656 12 12 14.438zm1.031 6.609V16.22l4.453-2.953 3.61 2.39-8.063 5.39zm8.906-7.313L19.36 12l2.578-1.734v3.468z"
      ></path>
  </symbol>
</svg>